# xmcd
#
# Track frame offsets:
#	150
#	11753
#	22921
#	31876
#	40109
#	45801
#	55063
#	64865
#	76147
#	87104
#	96924
#	107809
#	115542
#	124002
#	133049
#	143231
#	151609
#	163544
#	171239
#	179191
#	189629
#	198027
#	208107
#	220262
#	229814
#	238824
#	245569
#	254922
#	265537
#	276409
#	283074
#
# Disc length: 3874 seconds
# Revision: 1
# Processed by: cddbd v1.5.2PL0 Copyright (c) Steve Scherf et al.
# Submitted via: dBpowerAMP V12.0
#
DISCID=b50f201f
DTITLE=Johnny Cash - The Total Johnny Cash Sun Collection
DYEAR=2018
DGENRE=Country
TTITLE0=Port of Lonely Hearts
TTITLE1=Oh Lonesome Me
TTITLE2=Life Goes On
TTITLE3=Sugartime
TTITLE4=My Treasure
TTITLE5=Blue Train
TTITLE6=Born to Lose
TTITLE7=Wide Open Road
TTITLE8=Belshazzar
TTITLE9=Rock Island Line
TTITLE10=(I Heard That) Lonesome Whistle
TTITLE11=If the Good Lord's Willing
TTITLE12=Country Boy
TTITLE13=Remember Me (I'm the One Who Loves You)
TTITLE14=I Was There When It Happened
TTITLE15=Wreck of the Old 97
TTITLE16=Doin' My Time
TTITLE17=Hey Good Lookin'
TTITLE18=I Can't Help It (If I'm Still in Love With You)
TTITLE19=You Win Again
TTITLE20=Always Alone
TTITLE21=I Could Never Be Ashamed of You
TTITLE22=Goodnight Irene
TTITLE23=New Mexico
TTITLE24=Two Timin' Woman
TTITLE25=You're My Baby
TTITLE26=I Couldn't Keep From Crying
TTITLE27=Cold Cold Heart
TTITLE28=Fools Hall of Fame
TTITLE29=Leave That Junk Alone
TTITLE30=Rock 'N' Roll Ruby
EXTD=
EXTT0=
EXTT1=
EXTT2=
EXTT3=
EXTT4=
EXTT5=
EXTT6=
EXTT7=
EXTT8=
EXTT9=
EXTT10=
EXTT11=
EXTT12=
EXTT13=
EXTT14=
EXTT15=
EXTT16=
EXTT17=
EXTT18=
EXTT19=
EXTT20=
EXTT21=
EXTT22=
EXTT23=
EXTT24=
EXTT25=
EXTT26=
EXTT27=
EXTT28=
EXTT29=
EXTT30=
PLAYORDER=
